A group of teenagers celebrating the anniversary of the death of a local axe murderer suddenly find themselves face to face with the realities of this haunting urban legend

Genre: Horror | Thriller
Language:English  http://www.imdb.com/title/tt1161404/
Source: 720p BluRay x264-aAF
 
http://www.starshare.ro/bitbucket/vlcsnap2010-10-15-02h43m24s1.jpg
 
http://www.starshare.ro/bitbucket/vlcsnap2010-10-15-02h45m06s20.jpg
 
http://www.starshare.ro/bitbucket/vlcsnap2010-10-15-02h44m13s240.jpg
 
http://www.youtube.com/watch?v=j7Ztc9JMy9w&feature=player_embedded

General
Complete name :Blood.Night.The.Legend.Of.Mary.Hatchet.2009.BRRip.XviD.Feel-Free
Format : AVI
Format/Info : Audio Video Interleave
File size : 1.14 GiB
Duration : 1h 24mn
Overall bit rate : 1 935 Kbps
Video #0
Muxing mode : Packed bitstream
Codec ID : XVID
Codec ID/Hint : XviD
Duration : 1h 24mn
Bit rate : 1 477 Kbps
Width : 720 pixels
Height : 304 pixels
Display aspect ratio : 2.35:1
Frame rate : 23.976 fps
Resolution : 24 bits
Colorimetry : 4:2:0
Scan type : Progressive
Bits/(Pixel*Frame) : 0.282
Stream size : 892 MiB (76%)
Writing library : XviD 1.2.1 (UTC 2008-12-04)
Audio #1
ID : 1
Format : AC-3
Format/Info : Audio Coding 3
Codec ID : 2000
Duration : 1h 24mn
Bit rate mode : Constant
Bit rate : 448 Kbps
Channel(s) : 6 channels
Channel positions : Front: L C R, Surround: L R, LFE
Sampling rate : 48.0 KHz
Stream size : 271 MiB (23%)
Alignment : Split accross interleaves
Interleave, duration : 42 ms (1.00 video frame)
Interleave, preload duration : 500 ms